<svg id="svg" xmlns="http://www.w3.org/2000/svg" xmlns:xlink="http://www.w3.org/1999/xlink" width="400" height="400" viewBox="0, 0, 400,400" version="1.1"><g id="svgg"><path id="path0" d="M40.395 0.703 C 40.078 1.203,39.894 1.259,39.743 0.900 C 39.488 0.293,38.400 0.231,38.400 0.824 C 38.400 1.057,38.232 1.144,38.028 1.017 C 37.823 0.891,37.547 0.962,37.415 1.176 C 37.283 1.390,36.865 1.454,36.487 1.319 C 36.109 1.183,35.934 1.220,36.097 1.400 C 36.261 1.581,36.016 1.993,35.554 2.317 C 34.857 2.806,34.656 2.814,34.381 2.369 C 34.108 1.928,33.919 1.945,33.324 2.464 C 32.926 2.811,32.391 3.020,32.137 2.927 C 31.882 2.834,31.539 2.975,31.375 3.241 C 31.203 3.518,31.244 3.620,31.472 3.479 C 31.689 3.345,31.867 3.459,31.867 3.732 C 31.867 4.005,31.550 4.229,31.163 4.229 C 30.776 4.229,30.561 4.064,30.685 3.862 C 30.810 3.661,30.661 3.587,30.356 3.698 C 30.050 3.809,29.834 4.071,29.876 4.279 C 29.918 4.488,29.562 4.645,29.083 4.629 C 28.605 4.613,28.211 4.810,28.207 5.067 C 28.203 5.323,28.065 5.668,27.900 5.833 C 27.735 5.998,27.600 5.923,27.600 5.667 C 27.600 5.410,27.426 5.200,27.213 5.200 C 26.999 5.200,26.929 5.472,27.057 5.805 C 27.221 6.232,27.105 6.339,26.664 6.169 C 25.671 5.788,25.069 6.359,25.681 7.101 C 26.136 7.653,26.101 7.678,25.394 7.302 C 24.788 6.979,24.397 7.013,23.818 7.436 C 23.248 7.853,23.197 8.012,23.624 8.047 C 23.941 8.073,23.660 8.218,23.000 8.370 C 22.308 8.528,21.849 8.868,21.916 9.171 C 21.989 9.498,21.801 9.609,21.422 9.464 C 21.055 9.323,20.646 9.540,20.394 10.011 C 20.164 10.441,19.771 10.749,19.520 10.696 C 19.270 10.643,18.690 11.176,18.232 11.880 C 17.775 12.583,17.150 13.263,16.843 13.389 C 16.375 13.582,16.372 13.506,16.821 12.909 C 17.115 12.519,16.240 13.274,14.878 14.587 C 12.362 17.011,12.003 17.448,12.900 16.994 C 13.175 16.855,13.040 17.037,12.600 17.399 C 12.160 17.760,11.849 18.237,11.910 18.458 C 11.970 18.679,11.859 18.760,11.663 18.639 C 11.159 18.327,9.866 19.859,10.191 20.385 C 10.340 20.626,10.224 20.771,9.930 20.710 C 9.637 20.649,9.425 20.911,9.455 21.296 C 9.485 21.678,9.349 21.892,9.152 21.770 C 8.955 21.649,8.670 21.876,8.517 22.275 C 8.365 22.674,7.930 23.335,7.550 23.744 C 7.170 24.153,6.966 24.768,7.097 25.109 C 7.249 25.506,7.174 25.631,6.888 25.454 C 6.642 25.302,6.253 25.528,6.023 25.957 C 5.718 26.527,5.739 26.789,6.103 26.936 C 6.401 27.056,6.325 27.149,5.913 27.168 C 5.441 27.190,5.305 27.409,5.481 27.866 C 5.652 28.313,5.583 28.436,5.268 28.242 C 4.810 27.959,4.629 28.442,4.779 29.540 C 4.820 29.837,4.661 29.962,4.427 29.817 C 4.025 29.568,3.812 30.126,3.981 30.985 C 4.022 31.196,3.739 31.601,3.352 31.885 C 2.964 32.168,2.861 32.400,3.124 32.400 C 3.388 32.400,3.253 32.747,2.819 33.181 C 2.380 33.620,2.108 34.324,2.198 34.791 C 2.286 35.248,2.188 35.516,1.979 35.387 C 1.771 35.258,1.573 35.388,1.539 35.676 C 1.418 36.716,1.326 37.018,0.790 38.129 C 0.325 39.093,0.329 39.312,0.823 39.636 C 1.313 39.958,1.295 40.077,0.702 40.426 C 0.004 40.838,-0.447 357.570,0.248 359.381 C 0.378 359.719,0.645 359.896,0.842 359.774 C 1.359 359.454,1.282 360.158,0.741 360.699 C 0.395 361.045,0.448 361.414,0.957 362.191 C 1.329 362.758,1.542 363.371,1.429 363.552 C 1.317 363.734,1.503 364.224,1.842 364.641 C 2.182 365.058,2.345 365.175,2.206 364.900 C 2.067 364.625,2.143 364.400,2.376 364.400 C 2.609 364.400,2.800 364.670,2.800 365.000 C 2.800 365.330,2.614 365.600,2.386 365.600 C 2.124 365.600,2.154 365.932,2.467 366.500 C 2.739 366.995,2.994 367.588,3.033 367.818 C 3.223 368.924,4.873 372.000,5.277 372.000 C 5.528 372.000,5.621 372.113,5.483 372.251 C 5.046 372.688,6.391 374.800,7.110 374.806 C 7.605 374.811,7.659 374.902,7.299 375.130 C 6.921 375.371,6.998 375.661,7.615 376.324 C 8.064 376.806,8.312 377.200,8.167 377.200 C 8.021 377.200,8.124 377.468,8.396 377.796 C 8.668 378.123,9.078 378.275,9.307 378.134 C 9.565 377.975,9.602 378.073,9.404 378.393 C 9.200 378.724,9.430 379.191,10.042 379.690 C 10.569 380.119,10.730 380.335,10.400 380.170 C 10.070 380.006,10.236 380.350,10.770 380.935 C 11.802 382.069,12.241 382.322,11.747 381.500 C 11.553 381.177,11.692 381.199,12.141 381.564 C 12.524 381.874,12.752 382.349,12.648 382.618 C 12.471 383.080,14.452 385.323,14.963 385.239 C 15.093 385.218,15.182 385.307,15.161 385.437 C 15.071 385.988,17.338 387.922,17.846 387.727 C 18.161 387.606,18.400 387.765,18.400 388.095 C 18.400 388.415,18.760 389.002,19.200 389.400 C 19.640 389.798,20.000 389.972,20.000 389.786 C 20.000 389.599,20.264 389.796,20.587 390.224 C 20.910 390.651,21.180 390.825,21.187 390.611 C 21.194 390.397,21.471 390.610,21.803 391.083 C 22.466 392.029,24.981 393.473,24.572 392.673 C 24.439 392.413,24.666 392.610,25.075 393.110 C 25.685 393.857,25.918 393.929,26.368 393.510 C 26.789 393.119,26.851 393.117,26.635 393.500 C 26.455 393.819,26.614 394.002,27.076 394.006 C 27.549 394.010,27.637 394.116,27.330 394.311 C 27.016 394.511,27.182 394.761,27.830 395.067 C 28.561 395.412,28.803 395.411,28.812 395.062 C 28.819 394.808,29.001 394.903,29.217 395.273 C 29.745 396.178,31.837 397.185,32.803 396.999 C 33.253 396.913,33.545 397.050,33.492 397.325 C 33.441 397.586,33.708 397.802,34.085 397.805 C 34.461 397.807,34.992 398.032,35.265 398.305 C 35.537 398.577,35.949 398.797,36.180 398.794 C 36.411 398.791,36.330 398.613,36.000 398.400 C 35.481 398.065,35.490 398.011,36.067 398.006 C 36.433 398.003,36.793 398.166,36.867 398.370 C 36.940 398.573,37.270 398.798,37.600 398.870 C 37.930 398.941,38.312 399.154,38.449 399.341 C 38.586 399.529,39.103 399.466,39.597 399.201 C 40.092 398.937,40.386 398.899,40.251 399.118 C 39.740 399.944,43.092 399.981,120.108 399.995 L 199.000 400.009 199.060 397.905 C 199.537 381.316,199.622 257.138,199.156 257.419 C 198.693 257.697,198.687 257.646,199.119 257.112 C 199.469 256.681,199.501 256.386,199.219 256.212 C 198.989 256.069,198.797 256.188,198.794 256.476 C 198.790 256.796,198.673 256.844,198.494 256.600 C 198.054 256.001,198.549 256.016,179.050 255.992 C 165.197 255.975,160.809 255.854,160.659 255.485 C 160.510 255.120,160.366 255.135,160.080 255.543 C 159.797 255.946,159.626 255.965,159.410 255.615 C 159.250 255.357,158.869 255.241,158.564 255.358 C 158.259 255.475,158.029 255.443,158.052 255.286 C 158.170 254.495,157.936 254.354,157.325 254.851 C 156.735 255.331,156.683 255.313,156.908 254.713 C 157.049 254.335,156.993 253.919,156.783 253.789 C 156.572 253.659,156.400 253.713,156.400 253.910 C 156.400 254.106,156.140 254.267,155.822 254.267 C 155.417 254.267,155.346 254.076,155.583 253.632 C 155.815 253.198,155.638 252.641,155.022 251.869 C 154.446 251.146,154.189 250.391,154.308 249.770 C 154.410 249.237,154.315 248.800,154.097 248.800 C 153.849 248.800,153.676 245.120,153.633 238.900 C 153.596 233.455,153.397 223.183,153.190 216.074 C 152.866 204.883,152.895 203.027,153.409 202.242 C 153.736 201.744,153.882 201.216,153.735 201.068 C 153.587 200.921,153.696 200.800,153.977 200.800 C 154.318 200.800,154.406 200.476,154.242 199.825 C 154.101 199.261,154.193 198.728,154.460 198.563 C 154.766 198.374,154.824 198.468,154.632 198.838 C 154.472 199.147,154.618 199.058,154.958 198.641 C 155.297 198.224,155.480 197.729,155.364 197.541 C 155.248 197.353,155.388 197.196,155.676 197.191 C 155.964 197.186,156.650 196.824,157.200 196.386 C 158.010 195.741,158.048 195.640,157.400 195.854 C 156.860 196.032,156.730 195.986,157.000 195.711 C 157.220 195.487,157.940 195.185,158.600 195.039 C 159.478 194.846,159.639 194.885,159.200 195.182 C 158.870 195.405,158.803 195.591,159.051 195.594 C 159.299 195.597,159.733 195.321,160.016 194.981 C 160.467 194.437,162.833 194.369,179.637 194.422 C 198.125 194.479,199.600 194.415,199.600 193.553 C 199.600 193.333,199.414 193.268,199.186 193.409 C 198.902 193.584,198.786 186.269,198.816 170.157 C 198.843 155.873,199.003 146.876,199.224 147.225 C 199.460 147.597,199.590 146.628,199.594 144.476 C 199.597 142.589,199.443 141.250,199.237 141.377 C 198.791 141.653,199.167 139.990,199.707 139.300 C 199.922 139.025,199.941 138.797,199.749 138.794 C 199.557 138.791,199.660 138.623,199.977 138.423 C 200.442 138.129,200.464 137.859,200.092 137.043 C 199.771 136.337,199.759 135.949,200.054 135.767 C 200.286 135.623,200.400 134.979,200.305 134.335 C 200.211 133.691,200.286 133.070,200.473 132.955 C 200.660 132.839,200.709 132.577,200.583 132.372 C 200.456 132.168,200.566 132.000,200.826 132.000 C 201.142 132.000,201.218 131.589,201.054 130.772 C 200.903 130.015,201.038 129.101,201.404 128.392 C 202.067 127.111,202.206 126.263,201.600 127.200 C 201.296 127.670,201.211 127.569,201.206 126.733 C 201.203 126.147,201.367 125.607,201.570 125.533 C 201.774 125.460,201.999 125.130,202.070 124.800 C 202.142 124.470,202.378 124.072,202.597 123.917 C 202.853 123.734,202.832 123.472,202.537 123.177 C 202.194 122.834,202.280 122.520,202.877 121.923 C 203.342 121.458,203.591 120.808,203.474 120.363 C 203.365 119.943,203.459 119.600,203.684 119.600 C 203.909 119.600,203.999 119.240,203.884 118.799 C 203.751 118.290,203.831 118.096,204.105 118.265 C 204.376 118.432,204.443 118.289,204.285 117.878 C 204.148 117.519,204.210 117.117,204.424 116.985 C 204.638 116.853,204.709 116.577,204.583 116.372 C 204.456 116.168,204.515 116.000,204.713 116.000 C 205.130 116.000,206.192 112.861,206.045 112.060 C 205.991 111.763,206.139 111.638,206.373 111.783 C 206.763 112.024,206.956 111.414,206.907 110.100 C 206.897 109.825,207.031 109.600,207.204 109.600 C 207.377 109.600,207.890 108.888,208.343 108.019 C 209.072 106.621,209.088 106.467,208.484 106.694 C 207.912 106.908,207.881 106.850,208.297 106.338 C 208.570 106.002,208.660 105.569,208.497 105.376 C 208.333 105.184,208.519 105.271,208.909 105.570 C 209.535 106.049,209.586 106.029,209.341 105.391 C 209.156 104.909,209.213 104.761,209.512 104.946 C 209.953 105.218,210.902 103.933,210.715 103.316 C 210.663 103.142,211.107 102.482,211.702 101.850 C 212.298 101.217,212.688 100.542,212.569 100.350 C 212.450 100.157,212.554 100.000,212.800 100.000 C 213.046 100.000,213.133 99.816,212.994 99.590 C 212.855 99.365,212.889 99.230,213.070 99.290 C 213.252 99.351,213.400 99.252,213.400 99.072 C 213.400 98.891,213.708 98.572,214.083 98.361 C 214.459 98.151,214.672 97.732,214.556 97.430 C 214.440 97.128,214.566 96.745,214.835 96.579 C 215.176 96.367,215.222 96.445,214.985 96.838 C 214.697 97.317,214.747 97.319,215.323 96.851 C 215.695 96.549,216.000 96.054,216.000 95.751 C 216.000 95.448,216.191 95.200,216.424 95.200 C 216.657 95.200,216.718 94.975,216.559 94.700 C 216.401 94.425,216.422 94.337,216.606 94.504 C 216.999 94.861,218.800 93.281,218.800 92.579 C 218.800 92.315,219.115 91.851,219.500 91.549 C 220.149 91.040,220.156 91.058,219.600 91.800 C 219.044 92.542,219.051 92.560,219.700 92.051 C 220.085 91.749,220.400 91.207,220.400 90.847 C 220.400 90.487,220.805 89.944,221.300 89.640 L 222.200 89.087 221.449 90.043 C 221.036 90.570,221.739 89.920,223.011 88.600 C 224.284 87.280,225.192 86.470,225.030 86.800 C 224.868 87.130,225.200 86.895,225.768 86.278 C 226.335 85.660,226.800 85.264,226.800 85.397 C 226.800 85.530,227.614 85.079,228.608 84.394 C 229.659 83.672,230.302 82.965,230.143 82.707 C 229.968 82.425,230.100 82.353,230.505 82.508 C 230.863 82.646,231.373 82.467,231.671 82.099 C 232.121 81.544,232.111 81.499,231.600 81.800 C 231.082 82.105,231.075 82.061,231.549 81.477 C 232.143 80.744,232.602 80.549,232.200 81.200 C 232.064 81.420,232.227 81.600,232.562 81.600 C 232.898 81.600,233.365 81.240,233.600 80.800 C 233.835 80.360,234.247 80.003,234.514 80.006 C 234.819 80.010,234.777 80.156,234.400 80.400 C 234.070 80.613,234.003 80.791,234.251 80.794 C 234.499 80.797,235.003 80.395,235.370 79.900 C 235.737 79.405,235.936 79.213,235.812 79.473 C 235.665 79.781,236.006 79.736,236.793 79.343 C 237.457 79.012,238.000 78.654,238.000 78.547 C 238.000 78.440,237.792 78.481,237.538 78.638 C 237.267 78.806,237.184 78.749,237.339 78.499 C 237.483 78.266,237.945 78.165,238.366 78.275 C 238.879 78.409,239.289 78.181,239.609 77.584 C 239.978 76.895,240.162 76.814,240.419 77.230 C 240.689 77.668,240.892 77.641,241.508 77.083 C 241.924 76.706,242.381 76.514,242.523 76.656 C 242.665 76.798,242.887 76.639,243.016 76.301 C 243.160 75.929,243.555 75.768,244.026 75.891 C 244.467 76.006,244.800 75.891,244.800 75.623 C 244.800 75.364,244.991 75.271,245.225 75.416 C 245.459 75.560,245.973 75.386,246.367 75.030 C 246.762 74.673,247.362 74.487,247.702 74.618 C 248.041 74.748,248.440 74.659,248.587 74.421 C 248.735 74.182,249.023 74.091,249.228 74.217 C 249.432 74.344,249.600 74.262,249.600 74.036 C 249.600 73.810,249.870 73.729,250.200 73.855 C 250.530 73.982,250.800 73.902,250.800 73.678 C 250.800 73.454,251.115 73.322,251.500 73.384 C 251.885 73.446,252.355 73.407,252.544 73.297 C 252.733 73.188,253.622 73.063,254.520 73.019 C 255.419 72.976,256.212 72.765,256.283 72.551 C 256.354 72.337,257.040 72.235,257.806 72.325 C 258.637 72.422,259.200 72.313,259.200 72.056 C 259.200 71.818,259.498 71.740,259.866 71.881 C 260.349 72.066,260.442 71.991,260.204 71.606 C 259.986 71.254,260.031 71.172,260.338 71.362 C 260.592 71.519,261.025 71.507,261.300 71.335 C 261.994 70.903,263.600 70.851,263.600 71.262 C 263.600 71.448,264.140 71.600,264.800 71.600 C 265.460 71.600,266.000 71.420,266.000 71.200 C 266.000 70.980,266.135 70.821,266.300 70.847 C 267.117 70.976,268.025 70.764,267.852 70.484 C 267.745 70.311,268.727 70.208,270.034 70.255 C 271.576 70.311,272.322 70.197,272.157 69.930 C 272.013 69.698,272.288 69.726,272.793 69.996 C 273.282 70.258,274.023 70.383,274.441 70.273 C 274.858 70.164,275.200 70.238,275.200 70.437 C 275.200 70.649,283.118 70.800,294.224 70.800 C 308.031 70.800,313.172 70.679,312.974 70.357 C 312.787 70.055,312.987 70.005,313.600 70.200 C 314.286 70.418,314.432 70.357,314.215 69.943 C 314.059 69.644,314.322 69.850,314.800 70.400 C 315.278 70.950,315.537 71.130,315.376 70.800 C 315.214 70.470,315.492 70.623,315.993 71.139 C 316.714 71.882,316.976 71.966,317.246 71.539 C 317.515 71.116,317.589 71.142,317.594 71.664 C 317.597 72.030,318.130 72.775,318.778 73.320 C 319.426 73.865,319.846 74.421,319.711 74.556 C 319.577 74.690,319.812 74.803,320.233 74.806 C 320.848 74.811,320.886 74.884,320.426 75.176 C 319.972 75.463,319.953 75.661,320.333 76.119 C 321.062 76.997,321.206 117.705,320.483 118.380 C 320.185 118.658,320.076 119.210,320.226 119.682 C 320.399 120.228,320.338 120.409,320.043 120.226 C 319.647 119.982,319.422 120.474,319.553 121.300 C 319.579 121.465,319.465 121.556,319.300 121.503 C 318.826 121.350,317.175 122.642,317.469 122.936 C 317.614 123.081,317.416 123.200,317.028 123.200 C 316.641 123.200,315.768 123.595,315.090 124.079 C 314.411 124.562,314.006 124.714,314.189 124.417 C 314.466 123.969,313.814 123.933,310.362 124.204 C 303.620 124.733,290.156 124.790,288.844 124.294 C 287.924 123.947,287.484 123.981,286.740 124.458 C 286.118 124.857,284.955 125.036,283.300 124.987 C 281.697 124.940,280.798 125.073,280.794 125.357 C 280.791 125.601,280.621 125.537,280.418 125.216 C 280.099 124.711,279.948 124.723,279.306 125.304 C 278.844 125.722,278.162 125.904,277.503 125.784 C 276.881 125.672,276.311 125.806,276.122 126.110 C 275.945 126.395,275.260 126.630,274.600 126.632 C 273.940 126.634,273.437 126.829,273.482 127.065 C 273.527 127.300,273.257 127.488,272.882 127.482 C 271.689 127.462,269.587 128.456,269.866 128.907 C 270.030 129.172,269.892 129.244,269.503 129.095 C 269.132 128.953,268.574 129.198,268.138 129.696 C 267.732 130.159,267.606 130.418,267.858 130.271 C 268.110 130.125,268.405 130.235,268.513 130.517 C 268.621 130.798,268.415 131.052,268.055 131.081 C 266.063 131.241,264.746 132.170,263.734 134.128 C 263.280 135.006,263.255 135.384,263.624 135.829 C 263.921 136.186,263.943 136.400,263.682 136.400 C 263.454 136.400,263.191 136.175,263.098 135.900 C 263.004 135.624,262.639 135.959,262.280 136.649 C 261.924 137.336,261.736 138.003,261.864 138.130 C 261.991 138.258,261.790 138.667,261.417 139.041 C 261.043 139.414,260.815 140.013,260.908 140.371 C 261.002 140.730,260.820 141.266,260.502 141.562 C 260.185 141.858,260.007 142.523,260.105 143.038 C 260.214 143.607,260.125 143.877,259.879 143.725 C 259.613 143.561,259.561 144.218,259.727 145.637 C 259.871 146.874,259.834 147.568,259.640 147.257 C 259.451 146.956,259.322 157.384,259.350 170.657 L 259.400 194.600 260.800 194.550 C 272.632 194.123,316.209 194.465,316.788 194.989 C 317.159 195.325,317.629 195.597,317.831 195.594 C 318.034 195.591,317.930 195.413,317.600 195.200 C 317.157 194.914,317.138 194.811,317.529 194.806 C 318.243 194.798,319.231 195.828,318.881 196.216 C 318.726 196.387,318.913 196.415,319.295 196.278 C 319.728 196.123,319.954 196.212,319.895 196.514 C 319.843 196.781,320.025 196.955,320.300 196.900 C 320.575 196.845,320.800 197.048,320.800 197.351 C 320.800 197.654,321.205 198.203,321.700 198.570 C 322.195 198.937,322.357 199.117,322.060 198.970 C 321.625 198.755,321.609 198.869,321.974 199.552 C 322.224 200.018,322.602 200.400,322.814 200.400 C 323.026 200.400,323.197 200.715,323.194 201.100 C 323.189 201.698,323.131 201.713,322.800 201.200 C 322.519 200.766,322.418 201.098,322.434 202.400 C 322.451 203.744,322.540 203.998,322.789 203.400 C 323.043 202.788,323.107 202.944,323.060 204.060 C 323.027 204.862,322.883 205.448,322.740 205.361 C 322.597 205.274,322.477 205.877,322.472 206.701 C 322.461 208.824,322.317 209.600,321.933 209.600 C 321.750 209.600,321.603 209.915,321.606 210.300 C 321.611 210.836,321.691 210.875,321.950 210.467 C 322.175 210.112,322.274 210.335,322.244 211.127 C 322.220 211.784,322.065 212.238,321.900 212.137 C 321.735 212.036,321.600 212.308,321.600 212.743 C 321.600 213.178,321.775 213.593,321.988 213.667 C 322.212 213.744,322.134 214.223,321.804 214.800 C 321.489 215.350,321.112 216.032,320.967 216.315 C 320.822 216.598,321.040 217.214,321.451 217.684 C 321.863 218.153,321.988 218.414,321.729 218.263 C 321.135 217.917,320.656 219.317,320.999 220.396 C 321.143 220.852,320.984 221.573,320.626 222.085 C 320.282 222.576,320.003 223.253,320.006 223.589 C 320.011 224.100,320.070 224.108,320.368 223.639 C 320.622 223.237,320.706 223.379,320.662 224.138 C 320.628 224.722,320.465 225.200,320.300 225.200 C 319.836 225.200,319.946 227.119,320.426 227.416 C 320.709 227.591,320.641 227.913,320.225 228.372 C 319.880 228.753,319.719 229.185,319.866 229.332 C 320.013 229.480,319.923 229.600,319.667 229.600 C 319.410 229.600,319.200 229.960,319.200 230.400 C 319.200 230.893,319.469 231.202,319.900 231.206 C 320.454 231.211,320.485 231.285,320.049 231.561 C 319.728 231.765,319.628 232.122,319.811 232.417 C 320.026 232.766,319.963 232.824,319.608 232.605 C 319.214 232.361,319.139 232.602,319.290 233.629 C 319.412 234.463,319.281 235.176,318.943 235.514 C 318.362 236.095,318.177 237.785,318.732 237.442 C 319.116 237.204,319.047 238.280,318.612 239.301 C 318.448 239.686,318.427 240.451,318.564 241.001 C 318.716 241.604,318.644 242.000,318.384 242.000 C 318.147 242.000,318.064 242.180,318.200 242.400 C 318.336 242.620,318.257 242.800,318.024 242.800 C 317.791 242.800,317.600 243.250,317.600 243.800 C 317.600 244.350,317.741 244.800,317.914 244.800 C 318.087 244.800,318.229 245.160,318.229 245.600 C 318.229 246.040,318.087 246.400,317.914 246.400 C 317.741 246.400,317.600 246.772,317.600 247.226 C 317.600 247.681,317.401 248.424,317.159 248.877 C 316.828 249.495,316.840 249.777,317.207 250.004 C 317.575 250.232,317.543 250.392,317.080 250.653 C 316.742 250.844,316.405 251.261,316.332 251.579 C 316.260 251.898,315.705 252.589,315.099 253.116 C 314.493 253.642,314.118 254.267,314.265 254.504 C 314.435 254.780,314.285 254.841,313.850 254.675 C 313.375 254.492,313.061 254.683,312.810 255.307 C 312.600 255.829,312.438 255.951,312.419 255.600 C 312.391 255.067,312.344 255.067,311.994 255.600 C 311.644 256.133,311.552 256.133,311.170 255.600 C 310.854 255.160,310.686 255.130,310.540 255.488 C 310.387 255.864,304.764 255.986,286.071 256.019 C 272.722 256.043,261.260 256.102,260.600 256.152 L 259.400 256.241 259.400 328.132 L 259.400 400.023 309.308 399.987 C 336.758 399.967,359.122 399.798,359.008 399.612 C 358.893 399.427,359.187 399.376,359.662 399.500 C 360.195 399.640,360.429 399.570,360.272 399.317 C 360.125 399.078,360.472 398.904,361.110 398.897 C 362.997 398.878,363.254 398.811,363.000 398.400 C 362.864 398.180,362.928 398.000,363.143 398.000 C 363.358 398.000,363.614 398.225,363.712 398.500 C 363.834 398.842,364.244 398.684,365.010 398.000 C 365.625 397.450,365.999 397.225,365.841 397.500 C 365.681 397.777,365.758 398.000,366.014 398.000 C 366.267 398.000,366.573 397.625,366.693 397.166 C 366.844 396.587,367.004 396.482,367.215 396.824 C 367.382 397.095,367.819 397.202,368.185 397.061 C 368.551 396.921,368.753 396.648,368.634 396.456 C 368.515 396.263,368.819 396.127,369.309 396.153 C 369.799 396.179,370.163 395.999,370.118 395.754 C 370.073 395.508,370.433 395.328,370.918 395.354 C 371.403 395.379,371.763 395.199,371.718 394.954 C 371.673 394.708,372.032 394.528,372.516 394.554 C 373.000 394.579,373.397 394.390,373.398 394.133 C 373.399 393.877,373.535 393.532,373.700 393.367 C 373.865 393.202,374.000 393.278,374.000 393.537 C 374.000 393.892,374.189 393.889,374.774 393.523 C 375.200 393.257,375.482 392.933,375.402 392.803 C 375.321 392.673,375.617 392.539,376.060 392.505 C 377.108 392.426,378.061 391.623,377.734 391.093 C 377.584 390.851,377.670 390.796,377.938 390.962 C 378.192 391.119,378.400 391.046,378.400 390.800 C 378.400 390.554,378.580 390.464,378.800 390.600 C 379.020 390.736,379.203 390.522,379.206 390.124 C 379.211 389.567,379.291 389.525,379.555 389.941 C 379.824 390.366,380.034 390.287,380.532 389.576 C 380.881 389.077,381.086 388.539,380.988 388.380 C 380.889 388.221,381.167 387.997,381.605 387.883 C 382.133 387.745,382.313 387.831,382.140 388.137 C 381.997 388.392,382.530 387.986,383.324 387.237 C 384.119 386.487,384.672 385.717,384.555 385.527 C 384.437 385.336,384.571 385.230,384.852 385.290 C 385.133 385.351,385.372 385.175,385.382 384.900 C 385.392 384.625,385.520 384.445,385.668 384.500 C 386.089 384.657,387.998 382.721,387.776 382.362 C 387.667 382.185,387.948 381.842,388.400 381.600 C 388.852 381.358,389.100 380.961,388.949 380.718 C 388.791 380.462,388.858 380.389,389.111 380.545 C 389.350 380.693,389.825 380.414,390.166 379.926 C 390.647 379.240,390.676 378.969,390.294 378.726 C 389.936 378.499,389.976 378.411,390.438 378.406 C 391.282 378.398,392.427 377.099,392.505 376.062 C 392.540 375.607,392.649 375.315,392.748 375.415 C 392.991 375.658,393.796 374.469,395.217 371.767 C 396.476 369.374,396.687 368.575,395.938 369.038 C 395.650 369.216,395.585 369.148,395.766 368.855 C 395.925 368.598,396.223 368.491,396.428 368.617 C 396.632 368.744,396.822 368.657,396.850 368.424 C 396.942 367.642,397.026 367.404,397.528 366.500 C 397.803 366.005,397.928 365.600,397.805 365.600 C 397.682 365.600,397.876 365.150,398.237 364.600 C 398.637 363.990,398.718 363.600,398.446 363.600 C 398.201 363.600,398.000 363.409,398.000 363.176 C 398.000 362.943,398.180 362.864,398.400 363.000 C 398.811 363.254,398.878 362.997,398.897 361.110 C 398.904 360.472,399.078 360.125,399.317 360.272 C 399.570 360.429,399.640 360.195,399.500 359.662 C 399.376 359.187,399.436 358.899,399.633 359.021 C 400.030 359.266,400.152 41.660,399.756 40.628 C 399.624 40.285,399.337 40.115,399.118 40.251 C 398.895 40.388,398.919 40.125,399.172 39.652 C 399.525 38.993,399.488 38.543,399.002 37.604 C 398.660 36.942,398.495 36.400,398.636 36.400 C 398.777 36.400,398.597 35.950,398.237 35.400 C 397.876 34.850,397.682 34.400,397.805 34.400 C 397.928 34.400,397.805 33.995,397.533 33.500 C 397.261 33.005,397.002 32.383,396.957 32.117 C 396.790 31.127,394.692 27.200,394.329 27.200 C 394.122 27.200,394.064 27.021,394.199 26.802 C 394.334 26.583,393.940 25.933,393.323 25.359 C 392.705 24.784,392.253 24.064,392.318 23.757 C 392.383 23.446,392.119 23.197,391.718 23.194 C 391.277 23.190,391.170 23.075,391.442 22.894 C 391.994 22.527,389.510 18.949,388.815 19.110 C 388.554 19.170,388.455 19.034,388.596 18.807 C 388.736 18.580,388.570 18.287,388.228 18.155 C 387.885 18.024,387.687 17.783,387.788 17.619 C 387.889 17.456,387.438 16.811,386.786 16.186 C 386.134 15.562,385.600 15.196,385.600 15.374 C 385.600 15.552,385.332 15.476,385.004 15.204 C 384.677 14.932,384.490 14.577,384.590 14.416 C 384.690 14.254,384.210 13.600,383.524 12.961 C 382.838 12.323,382.405 12.025,382.562 12.300 C 382.719 12.575,382.678 12.800,382.470 12.800 C 382.263 12.800,381.994 12.422,381.874 11.960 C 381.734 11.425,381.476 11.229,381.165 11.422 C 380.872 11.603,380.779 11.557,380.934 11.307 C 381.075 11.078,380.923 10.668,380.596 10.396 C 380.268 10.124,379.995 10.059,379.988 10.251 C 379.981 10.443,379.796 10.292,379.577 9.917 C 379.358 9.541,378.932 9.328,378.630 9.444 C 378.328 9.560,377.945 9.434,377.779 9.165 C 377.573 8.832,377.643 8.779,378.000 9.000 C 378.346 9.214,378.427 9.167,378.238 8.862 C 378.081 8.608,377.683 8.400,377.353 8.400 C 377.023 8.400,376.864 8.220,377.000 8.000 C 377.136 7.780,377.039 7.600,376.785 7.600 C 376.531 7.600,375.825 7.245,375.217 6.812 C 374.608 6.378,373.995 6.138,373.855 6.278 C 373.715 6.419,373.600 6.319,373.600 6.057 C 373.600 5.640,371.494 4.535,371.342 4.872 C 371.310 4.942,370.950 4.712,370.542 4.361 C 369.746 3.675,368.478 3.064,367.754 3.017 C 367.509 3.001,367.053 2.776,366.741 2.517 C 366.428 2.257,365.819 2.101,365.386 2.170 C 364.954 2.238,364.107 2.045,363.504 1.739 C 362.901 1.434,362.292 1.203,362.149 1.226 C 362.006 1.249,361.742 1.029,361.561 0.738 C 361.300 0.315,361.132 0.308,360.737 0.703 C 360.166 1.274,359.443 1.378,359.774 0.842 C 359.896 0.645,359.720 0.378,359.384 0.249 C 357.576 -0.444,40.836 0.006,40.395 0.703 M153.092 227.891 C 153.005 228.721,152.933 228.140,152.931 226.600 C 152.929 225.060,153.000 224.381,153.089 225.091 C 153.177 225.801,153.179 227.061,153.092 227.891 M199.098 272.880 C 199.026 274.926,198.966 273.360,198.965 269.400 C 198.965 265.440,199.024 263.766,199.098 265.680 C 199.171 267.594,199.171 270.834,199.098 272.880 M199.097 318.700 C 199.020 320.185,198.957 318.970,198.957 316.000 C 198.957 313.030,199.020 311.815,199.097 313.300 C 199.174 314.785,199.174 317.215,199.097 318.700 M199.099 361.900 C 199.029 364.485,198.972 362.370,198.972 357.200 C 198.972 352.030,199.029 349.915,199.099 352.500 C 199.168 355.085,199.168 359.315,199.099 361.900 " stroke="none" fill="#445c94" fill-rule="evenodd"></path><path id="path1" d="M41.700 0.276 C 42.085 0.376,42.715 0.376,43.100 0.276 C 43.485 0.175,43.170 0.093,42.400 0.093 C 41.630 0.093,41.315 0.175,41.700 0.276 M35.396 2.007 C 35.258 2.230,34.977 2.309,34.772 2.183 C 34.568 2.056,34.400 2.143,34.400 2.376 C 34.400 2.951,34.848 2.890,35.776 2.187 C 36.204 1.864,36.349 1.600,36.100 1.600 C 35.851 1.600,35.534 1.783,35.396 2.007 M0.093 42.400 C 0.093 43.170,0.175 43.485,0.276 43.100 C 0.376 42.715,0.376 42.085,0.276 41.700 C 0.175 41.315,0.093 41.630,0.093 42.400 M272.157 69.930 C 272.322 70.197,271.576 70.311,270.034 70.255 C 268.727 70.208,267.745 70.311,267.852 70.484 C 268.125 70.926,275.200 70.881,275.200 70.437 C 275.200 70.238,274.858 70.164,274.441 70.273 C 274.023 70.383,273.282 70.258,272.793 69.996 C 272.288 69.726,272.013 69.698,272.157 69.930 M314.188 69.981 C 314.420 70.356,314.270 70.413,313.600 70.200 C 312.987 70.005,312.787 70.055,312.974 70.357 C 313.306 70.896,314.800 70.950,314.800 70.424 C 314.800 70.217,314.592 69.919,314.338 69.762 C 314.038 69.576,313.986 69.653,314.188 69.981 M261.351 71.280 C 261.242 71.456,261.703 71.600,262.376 71.600 C 263.049 71.600,263.600 71.456,263.600 71.280 C 263.600 71.104,263.138 70.960,262.574 70.960 C 262.010 70.960,261.459 71.104,261.351 71.280 M209.200 105.157 C 209.200 105.436,208.985 105.523,208.700 105.359 C 208.425 105.201,208.333 105.219,208.497 105.399 C 208.660 105.579,208.593 105.968,208.348 106.263 C 208.032 106.643,208.029 106.800,208.337 106.800 C 208.858 106.800,209.763 105.230,209.432 104.899 C 209.305 104.771,209.200 104.887,209.200 105.157 M289.125 124.345 C 289.811 124.780,304.014 124.850,306.600 124.431 C 307.928 124.216,305.239 124.091,298.600 124.060 C 293.100 124.034,288.836 124.162,289.125 124.345 M201.206 126.700 C 201.211 127.557,201.298 127.668,201.600 127.200 C 202.106 126.417,202.106 125.600,201.600 125.600 C 201.380 125.600,201.203 126.095,201.206 126.700 M267.144 130.823 C 266.203 131.642,266.203 131.644,267.108 131.204 C 267.608 130.961,268.191 130.871,268.404 131.002 C 268.621 131.137,268.686 130.970,268.553 130.621 C 268.253 129.841,268.275 129.837,267.144 130.823 M200.019 135.600 C 199.668 136.549,199.693 138.113,200.049 137.487 C 200.271 137.096,200.373 136.466,200.273 136.087 C 200.174 135.709,200.060 135.490,200.019 135.600 M198.816 170.157 C 198.786 186.269,198.902 193.584,199.186 193.409 C 199.714 193.082,199.751 148.059,199.224 147.225 C 199.003 146.876,198.843 155.873,198.816 170.157 M259.314 152.600 C 259.317 153.700,259.395 154.103,259.487 153.495 C 259.579 152.886,259.577 151.986,259.482 151.495 C 259.387 151.003,259.311 151.500,259.314 152.600 M288.200 194.404 L 261.400 194.609 288.900 194.704 C 304.025 194.757,316.400 194.731,316.400 194.647 C 316.400 194.242,313.171 194.214,288.200 194.404 M169.527 194.700 C 174.658 194.763,182.938 194.763,187.927 194.700 C 192.917 194.636,188.720 194.584,178.600 194.584 C 168.480 194.584,164.397 194.636,169.527 194.700 M158.200 195.085 C 157.760 195.191,157.220 195.460,157.000 195.684 C 156.730 195.958,156.925 195.995,157.600 195.797 C 159.671 195.189,160.155 194.615,158.200 195.085 M153.251 202.600 C 153.176 202.820,153.090 208.940,153.058 216.200 C 153.021 224.706,153.106 228.049,153.299 225.600 C 153.582 222.013,153.539 201.744,153.251 202.600 M322.621 203.858 C 322.475 204.440,322.501 205.059,322.678 205.234 C 322.855 205.410,323.032 204.934,323.072 204.177 C 323.157 202.531,322.985 202.409,322.621 203.858 M321.787 210.840 C 321.641 211.302,321.673 211.833,321.860 212.019 C 322.047 212.204,322.219 211.826,322.243 211.178 C 322.293 209.788,322.154 209.684,321.787 210.840 M320.806 217.900 C 320.809 218.285,321.001 218.870,321.232 219.200 C 321.556 219.663,321.591 219.583,321.383 218.850 C 321.175 218.114,321.237 217.974,321.657 218.227 C 322.107 218.497,322.106 218.437,321.651 217.877 C 320.957 217.022,320.798 217.026,320.806 217.900 M320.243 223.833 C 319.916 224.686,319.937 225.200,320.300 225.200 C 320.465 225.200,320.626 224.750,320.658 224.200 C 320.724 223.049,320.589 222.930,320.243 223.833 M319.200 231.776 C 319.200 232.093,319.408 232.481,319.662 232.638 C 319.962 232.824,320.014 232.747,319.811 232.417 C 319.628 232.122,319.728 231.765,320.049 231.561 C 320.485 231.285,320.454 231.211,319.900 231.206 C 319.515 231.203,319.200 231.459,319.200 231.776 M318.667 237.467 C 318.520 237.613,318.400 238.093,318.400 238.533 C 318.400 239.536,318.929 239.065,319.008 237.992 C 319.073 237.115,319.051 237.082,318.667 237.467 M317.600 245.600 C 317.600 246.040,317.741 246.400,317.914 246.400 C 318.087 246.400,318.229 246.040,318.229 245.600 C 318.229 245.160,318.087 244.800,317.914 244.800 C 317.741 244.800,317.600 245.160,317.600 245.600 M198.965 269.400 C 198.966 273.360,199.026 274.926,199.098 272.880 C 199.171 270.834,199.171 267.594,199.098 265.680 C 199.024 263.766,198.965 265.440,198.965 269.400 M259.393 340.600 C 259.393 363.700,259.441 373.091,259.500 361.469 C 259.559 349.848,259.559 330.948,259.500 319.469 C 259.441 307.991,259.393 317.500,259.393 340.600 M198.957 316.000 C 198.957 318.970,199.020 320.185,199.097 318.700 C 199.174 317.215,199.174 314.785,199.097 313.300 C 199.020 311.815,198.957 313.030,198.957 316.000 M198.972 357.200 C 198.972 362.370,199.029 364.485,199.099 361.900 C 199.168 359.315,199.168 355.085,199.099 352.500 C 199.029 349.915,198.972 352.030,198.972 357.200 M199.122 383.700 C 199.040 392.335,199.114 399.571,199.286 399.780 C 199.459 399.989,199.600 392.924,199.600 384.080 C 199.600 375.236,199.526 368.000,199.436 368.000 C 199.346 368.000,199.204 375.065,199.122 383.700 M381.600 387.928 C 381.270 388.078,380.942 388.465,380.870 388.789 C 380.774 389.228,380.952 389.187,381.570 388.627 C 382.696 387.608,382.704 387.428,381.600 387.928 " stroke="none" fill="#4c5c94" fill-rule="evenodd"></path></g></svg>