<svg id="svg" xmlns="http://www.w3.org/2000/svg" xmlns:xlink="http://www.w3.org/1999/xlink" width="400" height="400" viewBox="0, 0, 400,400" version="1.1"><g id="svgg"><path id="path0" d="M243.800 95.070 C 216.022 98.551,195.687 122.408,196.980 150.000 C 197.129 153.190,197.285 156.700,197.326 157.800 L 197.400 159.800 194.600 159.678 C 158.077 158.090,117.201 137.797,92.317 108.900 C 88.365 104.311,88.361 104.311,86.173 108.993 C 76.235 130.260,81.875 156.368,99.680 171.511 C 101.616 173.158,103.200 174.662,103.200 174.853 C 103.200 176.339,91.908 173.906,84.877 170.904 C 80.651 169.100,80.613 169.137,81.152 174.454 C 83.331 195.935,97.537 213.534,118.100 220.226 C 122.035 221.506,122.280 221.786,120.006 222.398 C 118.297 222.859,108.321 223.673,107.496 223.420 C 107.223 223.336,105.425 223.161,103.500 223.031 C 99.344 222.751,99.338 222.761,101.178 227.085 C 108.540 244.385,124.550 256.445,143.543 258.997 C 149.383 259.782,149.431 259.551,142.477 264.167 C 123.775 276.583,103.815 282.346,80.900 281.948 C 71.084 281.777,71.007 281.817,75.700 284.615 C 90.971 293.718,111.337 300.956,129.000 303.559 C 137.659 304.835,140.065 304.985,152.000 304.992 C 174.413 305.006,191.262 301.941,210.400 294.370 C 264.723 272.880,303.128 215.086,303.192 154.733 L 303.200 147.266 306.700 144.534 C 314.622 138.350,328.400 123.382,328.400 120.960 C 328.400 120.237,328.587 120.203,324.727 121.633 C 314.897 125.274,300.800 128.610,300.800 127.295 C 300.800 127.127,302.353 125.822,304.250 124.395 C 311.685 118.803,320.191 107.144,321.458 100.808 C 321.778 99.210,321.700 99.227,316.329 101.952 C 308.307 106.020,295.780 110.443,290.529 111.060 L 288.434 111.306 285.541 108.628 C 274.739 98.627,258.224 93.263,243.800 95.070 " stroke="none" fill="#fbfbfc" fill-rule="evenodd"></path><path id="path1" d="M20.800 0.260 C 20.217 0.453,19.252 0.850,17.200 1.741 C 11.622 4.165,5.466 10.222,2.100 16.600 L 0.200 20.200 0.200 200.000 L 0.200 379.800 1.672 382.687 C 4.278 387.799,6.484 390.530,11.000 394.232 C 13.808 396.534,15.033 397.268,19.561 399.357 C 20.259 399.679,69.572 399.800,200.161 399.800 L 379.800 399.800 382.600 398.428 C 389.674 394.963,395.185 389.317,398.830 381.800 L 399.800 379.800 399.800 200.000 L 399.800 20.200 398.440 17.463 C 395.099 10.737,389.730 5.267,383.200 1.935 L 379.800 0.200 200.600 0.131 C 102.040 0.093,21.130 0.151,20.800 0.260 M257.898 95.424 C 267.989 96.922,278.129 101.766,285.541 108.628 L 288.434 111.306 290.529 111.060 C 295.780 110.443,308.307 106.020,316.329 101.952 C 321.700 99.227,321.778 99.210,321.458 100.808 C 320.191 107.144,311.685 118.803,304.250 124.395 C 302.353 125.822,300.800 127.127,300.800 127.295 C 300.800 128.610,314.897 125.274,324.727 121.633 C 328.587 120.203,328.400 120.237,328.400 120.960 C 328.400 123.382,314.622 138.350,306.700 144.534 L 303.200 147.266 303.192 154.733 C 303.128 215.086,264.723 272.880,210.400 294.370 C 191.262 301.941,174.413 305.006,152.000 304.992 C 140.065 304.985,137.659 304.835,129.000 303.559 C 111.337 300.956,90.971 293.718,75.700 284.615 C 71.007 281.817,71.084 281.777,80.900 281.948 C 103.815 282.346,123.775 276.583,142.477 264.167 C 149.431 259.551,149.383 259.782,143.543 258.997 C 124.550 256.445,108.540 244.385,101.178 227.085 C 99.338 222.761,99.344 222.751,103.500 223.031 C 105.425 223.161,107.223 223.336,107.496 223.420 C 108.321 223.673,118.297 222.859,120.006 222.398 C 122.280 221.786,122.035 221.506,118.100 220.226 C 97.537 213.534,83.331 195.935,81.152 174.454 C 80.613 169.137,80.651 169.100,84.877 170.904 C 91.908 173.906,103.200 176.339,103.200 174.853 C 103.200 174.662,101.616 173.158,99.680 171.511 C 81.875 156.368,76.235 130.260,86.173 108.993 C 88.361 104.311,88.365 104.311,92.317 108.900 C 117.201 137.797,158.077 158.090,194.600 159.678 L 197.400 159.800 197.326 157.800 C 197.285 156.700,197.129 153.190,196.980 150.000 C 195.424 116.785,224.761 90.503,257.898 95.424 " stroke="none" fill="#04acf4" fill-rule="evenodd"></path></g></svg>